<svg id="Layer_1" data-name="Layer 1" xmlns="http://www.w3.org/2000/svg" viewBox="0 0 976.44 787"><defs><style>.cls-1{fill:#c30;}</style></defs><title>HK</title><path class="cls-1" d="M869,642c0-4.66,1.22-8.69,3-10.68L995.44,382H942v.36c-25.1-1-47.46,10.2-58.84,27.7l-3.6,6.57c-.21.46-.42.91-.62,1.37h-.14L792.74,575h-.17c-4.9,10.93-21.88,19-42.07,19H660c-10.86,0-19.68-8-20-18H640q0-18.33,0-37c0-115-1.39-221.82-3.76-310.46h-.08c0-14.13-10.3-25.59-23-25.59-.32,0-.64,0-.95,0v0H547V898h65.2c12.3,0,22.34-10.74,23-24.24h.38c1.55-51.63,2.75-110.31,3.51-173.76H640c0-10.86,8-19.68,18-20v0h82v.44h.52c20.93,0,38.53,8.28,43.61,19.5h.18l89.22,161.12h.14c.2.48.42.94.64,1.41L878,869.2c11.8,18,35,29.47,61,28.43V898h55.4L871.2,651.58A19.24,19.24,0,0,1,869,642Z" transform="translate(-19 -111)"/><path class="cls-1" d="M395.1,111c-.32,0-.64,0-1,0-12.84,0-23.25,13-23.25,29h-.08c-2.4,100.37-3.8,221.34-3.8,351.56q0,41.41.19,81.46H367c0,10.86-8,19.68-18,20v0H136c-10.86,0-19.68-8-20-18h-.25c-.49-63.44-1.79-122.27-3.7-173H112c0-10.47-10.75-19-24-19l-1,0v0H19V898H87c12.83,0,23.31-8,24-18h.39c2.19-51.82,3.71-113.21,4.33-180H116c0-10.86,8-19.68,18-20v0H348c10.86,0,19.68,8,20,18h.26c.77,62.59,1.88,120.71,3.27,172.55h.38c.63,15.29,10.79,27.45,23.22,27.45H461V111H395.1Z" transform="translate(-19 -111)"/></svg>